<?xml version="1.0" encoding="UTF-8"?>
<svg xmlns="http://www.w3.org/2000/svg" xmlns:xlink="http://www.w3.org/1999/xlink" version="1.1" width="512" height="512" x="0" y="0" viewBox="0 0 490.667 490.667" style="enable-background:new 0 0 512 512" xml:space="preserve" class="">
  <g>
    <path d="M480 426.667c-24.277 0-36.885 13.739-46.997 24.789-9.152 9.984-16.405 17.877-31.296 17.877-14.891 0-22.144-7.893-31.317-17.877-10.133-11.051-22.763-24.789-47.019-24.789-24.235 0-36.821 13.739-46.955 24.789-9.152 9.984-16.384 17.877-31.232 17.877-14.827 0-22.059-7.893-31.211-17.877-10.112-11.029-22.699-24.789-46.955-24.789-24.256 0-36.843 13.76-46.955 24.789-9.131 9.984-16.363 17.877-31.211 17.877-14.848 0-22.08-7.893-31.232-17.877-10.112-11.029-22.72-24.789-46.955-24.789C4.779 426.667 0 431.445 0 437.333 0 443.221 4.779 448 10.667 448c14.848 0 22.08 7.893 31.232 17.877 10.112 11.029 22.72 24.789 46.955 24.789s36.821-13.76 46.955-24.789C144.94 455.893 152.193 448 167.02 448s22.059 7.893 31.211 17.877c10.112 11.029 22.72 24.789 46.955 24.789s36.821-13.739 46.955-24.789c9.152-9.984 16.384-17.877 31.232-17.877 14.869 0 22.123 7.893 31.296 17.877 10.133 11.029 22.741 24.789 47.019 24.789 24.277 0 36.885-13.739 47.019-24.789C457.856 455.893 465.109 448 480 448c5.888 0 10.667-4.779 10.667-10.667s-4.779-10.666-10.667-10.666z" fill="#cd1300" opacity="1" data-original="#000000" class=""></path>
    <path d="M480 384c-24.277 0-36.885 13.739-46.997 24.789-9.152 9.984-16.405 17.877-31.296 17.877-14.891 0-22.144-7.893-31.317-17.877C360.256 397.739 347.627 384 323.371 384c-24.235 0-36.821 13.739-46.955 24.789-9.152 9.984-16.384 17.877-31.232 17.877-14.827 0-22.059-7.893-31.211-17.877C203.861 397.76 191.275 384 167.019 384s-36.843 13.76-46.955 24.789c-9.131 9.984-16.363 17.877-31.211 17.877-14.848 0-22.08-7.893-31.232-17.877C47.509 397.76 34.901 384 10.667 384 4.779 384 0 388.779 0 394.667s4.779 10.667 10.667 10.667c14.848 0 22.08 7.893 31.232 17.877C52.011 434.24 64.619 448 88.853 448s36.821-13.76 46.955-24.789c9.131-9.984 16.384-17.877 31.211-17.877s22.059 7.893 31.211 17.877C208.341 434.24 220.949 448 245.184 448s36.821-13.739 46.955-24.789c9.152-9.984 16.384-17.877 31.232-17.877 14.869 0 22.123 7.893 31.296 17.877C364.8 434.24 377.408 448 401.685 448s36.885-13.739 47.019-24.789c9.152-9.984 16.405-17.877 31.296-17.877 5.888 0 10.667-4.779 10.667-10.667S485.888 384 480 384z" fill="#cd1300" opacity="1" data-original="#000000" class=""></path>
    <path d="M446.763 261.696a10.72 10.72 0 0 0-7.125-5.44l-192-42.667a10.6 10.6 0 0 0-4.629 0l-192 42.667a10.717 10.717 0 0 0-7.125 5.44 10.737 10.737 0 0 0-.469 8.939L107.328 430.4a10.626 10.626 0 0 0 7.36 6.4c3.328.747 6.869-.021 9.493-2.261 4.032-3.477 7.68-7.381 11.307-11.307 9.259-10.005 16.555-17.899 31.531-17.899 14.976 0 22.272 7.915 31.531 17.899 3.712 4.011 7.467 8.021 11.605 11.563a10.61 10.61 0 0 0 6.891 2.539h17.621V266.667c0-5.888 4.779-10.667 10.667-10.667S256 260.779 256 266.667v170.667h17.323c2.539 0 4.971-.896 6.912-2.539 4.16-3.541 7.893-7.531 11.605-11.563 9.259-10.005 16.555-17.899 31.531-17.899 15.019 0 22.336 7.915 31.595 17.92 3.669 3.968 7.381 7.936 11.499 11.435a10.705 10.705 0 0 0 9.472 2.24 10.683 10.683 0 0 0 7.339-6.4l63.957-159.893a10.578 10.578 0 0 0-.47-8.939zM138.667 0C132.779 0 128 4.779 128 10.667v32h85.333V0h-74.666zM352 0H234.667v42.667h128v-32C362.667 4.779 357.888 0 352 0zM170.667 64h64v64h-64zM394.667 64H320v64h85.333V74.667c0-5.888-4.778-10.667-10.666-10.667zM256 149.333V193.6l42.667 9.472v-53.739zM170.667 149.333v58.475l64-14.208v-44.267zM96 64c-5.888 0-10.667 4.779-10.667 10.667V128h64V64H96zM320 149.333v58.475l72.363 16.085c.768.171 1.536.256 2.304.256a10.66 10.66 0 0 0 10.666-10.667v-64.149H320zM85.333 149.333v64.149c0 3.243 1.472 6.293 3.989 8.32a10.772 10.772 0 0 0 8.981 2.091l51.029-11.328v-63.232H85.333zM256 64h42.667v64H256z" fill="#cd1300" opacity="1" data-original="#000000" class=""></path>
  </g>
</svg>
